<svg width="1006" height="968" viewBox="0 0 1006 968" fill="none" xmlns="http://www.w3.org/2000/svg">
<path d="M373.579 353.125C370.928 328.315 359.753 308.997 340.056 295.171C320.549 281.345 295.17 274.432 263.92 274.432C241.95 274.432 223.106 277.746 207.386 284.375C191.666 291.004 179.64 300 171.306 311.364C162.973 322.728 158.712 335.701 158.522 350.284C158.522 362.406 161.269 372.917 166.761 381.818C172.443 390.72 180.113 398.296 189.772 404.546C199.431 410.606 210.132 415.72 221.875 419.887C233.617 424.053 245.454 427.557 257.386 430.398L311.931 444.034C333.901 449.148 355.019 456.061 375.284 464.773C395.738 473.485 414.015 484.47 430.113 497.728C446.401 510.985 459.28 526.989 468.75 545.739C478.219 564.489 482.954 586.459 482.954 611.648C482.954 645.739 474.242 675.758 456.818 701.705C439.394 727.462 414.204 747.633 381.25 762.216C348.484 776.61 308.806 783.807 262.216 783.807C216.95 783.807 177.651 776.8 144.318 762.784C111.174 748.769 85.2269 728.315 66.4769 701.421C47.9163 674.527 37.8784 641.762 36.3633 603.125H140.056C141.572 623.39 147.822 640.246 158.806 653.693C169.791 667.14 184.091 677.178 201.704 683.807C219.507 690.436 239.394 693.75 261.363 693.75C284.28 693.75 304.356 690.341 321.591 683.523C339.015 676.515 352.651 666.856 362.5 654.546C372.348 642.046 377.367 627.462 377.556 610.796C377.367 595.644 372.916 583.144 364.204 573.296C355.492 563.258 343.276 554.925 327.556 548.296C312.026 541.478 293.844 535.417 273.011 530.114L206.818 513.068C158.901 500.758 121.022 482.103 93.1815 457.103C65.5299 431.913 51.7042 398.485 51.7042 356.818C51.7042 322.538 60.9845 292.519 79.5451 266.762C98.2951 241.004 123.769 221.023 155.966 206.818C188.163 192.425 224.621 185.228 265.341 185.228C306.628 185.228 342.803 192.425 373.863 206.818C405.113 221.023 429.64 240.815 447.443 266.193C465.246 291.383 474.431 320.36 475 353.125H373.579Z" fill="white"/>
<path d="M576.917 775V193.182H955.326V281.534H682.315V439.489H935.724V527.841H682.315V686.648H957.599V775H576.917Z" fill="white"/>
</svg>
