<svg width="1000" height="1000" viewBox="0 0 1000 1000" fill="none" xmlns="http://www.w3.org/2000/svg">
<rect width="1000" height="1000" rx="50" fill="black"/>
<path d="M393.277 386.025C390.986 364.594 381.334 347.908 364.321 335.966C347.471 324.023 325.549 318.052 298.557 318.052C279.58 318.052 263.302 320.915 249.724 326.641C236.146 332.367 225.758 340.137 218.56 349.953C211.362 359.768 207.681 370.974 207.517 383.571C207.517 394.041 209.889 403.12 214.634 410.809C219.541 418.498 226.167 425.042 234.51 430.44C242.853 435.675 252.096 440.092 262.239 443.691C272.382 447.29 282.606 450.317 292.913 452.771L340.027 464.549C359.004 468.966 377.245 474.938 394.749 482.463C412.417 489.988 428.204 499.476 442.109 510.928C456.178 522.379 467.302 536.203 475.482 552.399C483.662 568.594 487.752 587.571 487.752 609.329C487.752 638.776 480.226 664.705 465.176 687.117C450.125 709.366 428.367 726.788 399.902 739.385C371.601 751.818 337.328 758.035 297.084 758.035C257.986 758.035 224.04 751.982 195.248 739.876C166.619 727.77 144.207 710.102 128.011 686.872C111.979 663.642 103.309 635.34 102 601.967H191.567C192.876 619.472 198.274 634.031 207.763 645.646C217.251 657.262 229.602 665.932 244.816 671.658C260.194 677.383 277.371 680.246 296.348 680.246C316.143 680.246 333.484 677.302 348.371 671.412C363.421 665.359 375.2 657.016 383.707 646.383C392.213 635.586 396.549 622.989 396.712 608.593C396.549 595.505 392.704 584.708 385.179 576.201C377.654 567.531 367.102 560.333 353.524 554.607C340.109 548.718 324.404 543.483 306.409 538.902L249.233 524.179C207.844 513.545 175.126 497.432 151.078 475.837C127.193 454.079 115.251 425.205 115.251 389.215C115.251 359.605 123.267 333.675 139.299 311.427C155.495 289.178 177.498 271.919 205.309 259.65C233.12 247.217 264.611 241 299.784 241C335.447 241 366.693 247.217 393.522 259.65C420.515 271.919 441.7 289.014 457.078 310.936C472.456 332.694 480.39 357.723 480.881 386.025H393.277Z" fill="white"/>
<path d="M568.914 750.428V247.871H895.772V324.187H659.953V460.623H878.84V536.939H659.953V674.112H897.735V750.428H568.914Z" fill="white"/>
</svg>
